<svg xmlns="http://www.w3.org/2000/svg" xmlns:xlink="http://www.w3.org/1999/xlink" width="500" zoomAndPan="magnify" viewBox="0 0 375 374.999991" height="500" preserveAspectRatio="xMidYMid meet" version="1.0"><defs><g/></defs><rect x="-37.5" width="450" fill="#ffffff" y="-37.499999" height="449.999989" fill-opacity="1"/><rect x="-37.5" width="450" fill="#ffffff" y="-37.499999" height="449.999989" fill-opacity="1"/><path stroke-linecap="butt" transform="matrix(0.827503, 0, 0, 0.827503, 37.500002, 0.976644)" fill="none" stroke-linejoin="miter" d="M 39.680767 298.85661 L 106.717003 141.686587 L 172.195465 141.686587 L 170.491354 298.85661 L 127.690315 298.85661 L 127.265467 283.69427 L 93.678901 245.854507 L 129.536042 245.854507 L 131.093816 186.328633 L 130.527353 181.792204 L 106.858619 240.043536 L 77.803761 240.043536 L 97.648866 263.145806 L 82.481806 298.85661 Z M 39.680767 298.85661 " stroke="#ffffff" stroke-width="11.247381" stroke-opacity="1" stroke-miterlimit="4"/><g fill="#000000" fill-opacity="1"><g transform="translate(62.596603, 248.399906)"><g><path d="M 7.734375 -0.125 L 63.21875 -130.1875 L 117.390625 -130.1875 L 115.984375 -0.125 L 80.578125 -0.125 L 80.21875 -12.671875 L 52.421875 -43.984375 L 82.09375 -43.984375 L 83.390625 -93.234375 L 82.921875 -96.984375 L 63.328125 -48.78125 L 39.28125 -48.78125 L 55.703125 -29.671875 L 43.15625 -0.125 Z M 7.734375 -0.125 "/></g></g></g><g fill="#000000" fill-opacity="1"><g transform="translate(160.918014, 209.666688)"><g/></g></g><g fill="#000000" fill-opacity="1"><g transform="translate(179.076245, 209.666688)"><g><path d="M 14.953125 -6.265625 C 15.398438 -5.671875 15.894531 -5.007812 16.4375 -4.28125 C 16.988281 -3.5625 17.578125 -2.785156 18.203125 -1.953125 C 17.609375 -1.390625 16.941406 -0.804688 16.203125 -0.203125 C 15.472656 0.398438 14.660156 1.03125 13.765625 1.6875 C 13.566406 1.5625 12.117188 -0.296875 9.421875 -3.890625 C 9.117188 -3.859375 8.800781 -3.832031 8.46875 -3.8125 C 8.132812 -3.800781 7.785156 -3.785156 7.421875 -3.765625 C 7.421875 -3.148438 7.414062 -2.519531 7.40625 -1.875 C 7.394531 -1.238281 7.390625 -0.585938 7.390625 0.078125 C 5.597656 0.429688 3.414062 0.640625 0.84375 0.703125 C 0.738281 -3.117188 0.679688 -6.753906 0.671875 -10.203125 C 0.660156 -13.660156 0.703125 -16.96875 0.796875 -20.125 C 1.109375 -20.351562 2.90625 -20.65625 6.1875 -21.03125 C 7.363281 -21.164062 8.460938 -21.234375 9.484375 -21.234375 C 10.515625 -21.234375 11.476562 -21.164062 12.375 -21.03125 C 16.050781 -20.289062 17.9375 -17.820312 18.03125 -13.625 C 18.007812 -10.394531 16.984375 -7.941406 14.953125 -6.265625 Z M 7.453125 -9.34375 C 10.203125 -9.582031 11.707031 -10.40625 11.96875 -11.8125 C 12.175781 -13.40625 11.84375 -14.457031 10.96875 -14.96875 C 10.289062 -15.300781 9.09375 -15.335938 7.375 -15.078125 C 7.382812 -14.160156 7.394531 -13.222656 7.40625 -12.265625 C 7.414062 -11.316406 7.429688 -10.34375 7.453125 -9.34375 Z M 7.453125 -9.34375 "/></g></g></g><g fill="#000000" fill-opacity="1"><g transform="translate(197.942004, 209.666688)"><g><path d="M 13.234375 -15.421875 C 13.265625 -12.210938 13.28125 -9.382812 13.28125 -6.9375 C 13.28125 -4.488281 13.25 -2.40625 13.1875 -0.6875 C 11.644531 -0.4375 10.320312 -0.265625 9.21875 -0.171875 C 8.125 -0.0859375 7.234375 -0.0820312 6.546875 -0.15625 C 6.515625 -2.488281 6.488281 -4.867188 6.46875 -7.296875 C 6.457031 -9.734375 6.46875 -12.25 6.5 -14.84375 C 4.78125 -14.6875 2.882812 -14.53125 0.8125 -14.375 C 0.726562 -15.28125 0.679688 -16.253906 0.671875 -17.296875 C 0.660156 -18.335938 0.703125 -19.457031 0.796875 -20.65625 C 3.984375 -21.019531 7.097656 -21.34375 10.140625 -21.625 C 13.179688 -21.90625 16.1875 -22.144531 19.15625 -22.34375 C 19.238281 -20.414062 19.210938 -18.316406 19.078125 -16.046875 C 18.617188 -15.941406 16.671875 -15.734375 13.234375 -15.421875 Z M 13.234375 -15.421875 "/></g></g></g><g fill="#000000" fill-opacity="1"><g transform="translate(217.807622, 209.666688)"><g><path d="M 7.390625 -21.734375 C 7.484375 -18.316406 7.53125 -14.863281 7.53125 -11.375 C 7.539062 -7.894531 7.515625 -4.347656 7.453125 -0.734375 C 5.503906 -0.421875 3.3125 -0.210938 0.875 -0.109375 C 0.65625 -5.109375 0.597656 -12.113281 0.703125 -21.125 C 1.898438 -21.351562 3.050781 -21.515625 4.15625 -21.609375 C 5.257812 -21.710938 6.335938 -21.753906 7.390625 -21.734375 Z M 3.03125 -23.3125 C 1.726562 -23.507812 1.085938 -24.300781 1.109375 -25.6875 C 1.242188 -26.925781 1.910156 -27.84375 3.109375 -28.4375 C 4.296875 -29.019531 5.363281 -29.128906 6.3125 -28.765625 C 7.519531 -28.128906 8.003906 -27.191406 7.765625 -25.953125 C 7.503906 -25.003906 6.992188 -24.289062 6.234375 -23.8125 C 5.335938 -23.269531 4.269531 -23.101562 3.03125 -23.3125 Z M 3.03125 -23.3125 "/></g></g></g><g fill="#000000" fill-opacity="1"><g transform="translate(226.016986, 209.666688)"><g><path d="M 11.109375 -14.546875 C 9.648438 -14.441406 8.457031 -13.550781 7.53125 -11.875 C 6.894531 -10.394531 7.015625 -9.023438 7.890625 -7.765625 C 8.679688 -6.796875 9.796875 -6.414062 11.234375 -6.625 C 12.429688 -6.925781 13.609375 -7.488281 14.765625 -8.3125 C 15.660156 -7.488281 16.816406 -5.832031 18.234375 -3.34375 C 18.078125 -3.144531 17.863281 -2.921875 17.59375 -2.671875 C 17.332031 -2.429688 17.03125 -2.15625 16.6875 -1.84375 C 14.769531 -0.539062 12.71875 0.160156 10.53125 0.265625 C 3.945312 0.265625 0.65625 -3.015625 0.65625 -9.578125 C 0.75 -10.890625 1.015625 -12.210938 1.453125 -13.546875 C 2.515625 -16.441406 4.40625 -18.671875 7.125 -20.234375 C 10.21875 -21.847656 13.40625 -21.945312 16.6875 -20.53125 C 17.28125 -20.15625 17.703125 -19.890625 17.953125 -19.734375 C 16.648438 -16.960938 15.421875 -14.9375 14.265625 -13.65625 C 13.222656 -14.21875 12.171875 -14.515625 11.109375 -14.546875 Z M 11.109375 -14.546875 "/></g></g></g><g fill="#000000" fill-opacity="1"><g transform="translate(244.909048, 209.666688)"><g><path d="M 7.046875 -21.734375 L 7.078125 -6.625 C 10.460938 -7 13.207031 -7.238281 15.3125 -7.34375 C 15.363281 -5.21875 15.335938 -3.253906 15.234375 -1.453125 C 11.816406 -0.941406 6.992188 -0.492188 0.765625 -0.109375 C 0.671875 -3.265625 0.632812 -6.59375 0.65625 -10.09375 C 0.6875 -13.59375 0.757812 -17.296875 0.875 -21.203125 C 3.113281 -21.679688 5.171875 -21.859375 7.046875 -21.734375 Z M 7.046875 -21.734375 "/></g></g></g><g fill="#000000" fill-opacity="1"><g transform="translate(260.933104, 209.666688)"><g><path d="M 15.609375 -21.578125 C 15.691406 -20.578125 15.726562 -19.59375 15.71875 -18.625 C 15.707031 -17.664062 15.660156 -16.71875 15.578125 -15.78125 L 7 -14.96875 L 7.03125 -12.953125 L 15.265625 -13.65625 L 15.265625 -8.109375 C 15.109375 -8.066406 14.347656 -7.984375 12.984375 -7.859375 C 11.628906 -7.742188 9.671875 -7.570312 7.109375 -7.34375 L 7.125 -5.421875 C 12.445312 -6.035156 15.28125 -6.320312 15.625 -6.28125 C 15.789062 -4.019531 15.789062 -2.132812 15.625 -0.625 C 12.15625 -0.101562 7.21875 0.3125 0.8125 0.625 C 0.726562 -2.53125 0.679688 -5.832031 0.671875 -9.28125 C 0.660156 -12.726562 0.703125 -16.351562 0.796875 -20.15625 C 6.453125 -20.945312 11.390625 -21.421875 15.609375 -21.578125 Z M 15.609375 -21.578125 "/></g></g></g><g fill="#000000" fill-opacity="1"><g transform="translate(277.35435, 209.666688)"><g/></g></g><g fill="#1791c8" fill-opacity="1"><g transform="translate(191.957366, 249.534544)"><g><path d="M 13.234375 -15.421875 C 13.265625 -12.210938 13.28125 -9.382812 13.28125 -6.9375 C 13.28125 -4.488281 13.25 -2.40625 13.1875 -0.6875 C 11.644531 -0.4375 10.320312 -0.265625 9.21875 -0.171875 C 8.125 -0.0859375 7.234375 -0.0820312 6.546875 -0.15625 C 6.515625 -2.488281 6.488281 -4.867188 6.46875 -7.296875 C 6.457031 -9.734375 6.46875 -12.25 6.5 -14.84375 C 4.78125 -14.6875 2.882812 -14.53125 0.8125 -14.375 C 0.726562 -15.28125 0.679688 -16.253906 0.671875 -17.296875 C 0.660156 -18.335938 0.703125 -19.457031 0.796875 -20.65625 C 3.984375 -21.019531 7.097656 -21.34375 10.140625 -21.625 C 13.179688 -21.90625 16.1875 -22.144531 19.15625 -22.34375 C 19.238281 -20.414062 19.210938 -18.316406 19.078125 -16.046875 C 18.617188 -15.941406 16.671875 -15.734375 13.234375 -15.421875 Z M 13.234375 -15.421875 "/></g></g></g><g fill="#1791c8" fill-opacity="1"><g transform="translate(211.819164, 249.534544)"><g><path d="M 14.953125 -6.265625 C 15.398438 -5.671875 15.894531 -5.007812 16.4375 -4.28125 C 16.988281 -3.5625 17.578125 -2.785156 18.203125 -1.953125 C 17.609375 -1.390625 16.941406 -0.804688 16.203125 -0.203125 C 15.472656 0.398438 14.660156 1.03125 13.765625 1.6875 C 13.566406 1.5625 12.117188 -0.296875 9.421875 -3.890625 C 9.117188 -3.859375 8.800781 -3.832031 8.46875 -3.8125 C 8.132812 -3.800781 7.785156 -3.785156 7.421875 -3.765625 C 7.421875 -3.148438 7.414062 -2.519531 7.40625 -1.875 C 7.394531 -1.238281 7.390625 -0.585938 7.390625 0.078125 C 5.597656 0.429688 3.414062 0.640625 0.84375 0.703125 C 0.738281 -3.117188 0.679688 -6.753906 0.671875 -10.203125 C 0.660156 -13.660156 0.703125 -16.96875 0.796875 -20.125 C 1.109375 -20.351562 2.90625 -20.65625 6.1875 -21.03125 C 7.363281 -21.164062 8.460938 -21.234375 9.484375 -21.234375 C 10.515625 -21.234375 11.476562 -21.164062 12.375 -21.03125 C 16.050781 -20.289062 17.9375 -17.820312 18.03125 -13.625 C 18.007812 -10.394531 16.984375 -7.941406 14.953125 -6.265625 Z M 7.453125 -9.34375 C 10.203125 -9.582031 11.707031 -10.40625 11.96875 -11.8125 C 12.175781 -13.40625 11.84375 -14.457031 10.96875 -14.96875 C 10.289062 -15.300781 9.09375 -15.335938 7.375 -15.078125 C 7.382812 -14.160156 7.394531 -13.222656 7.40625 -12.265625 C 7.414062 -11.316406 7.429688 -10.34375 7.453125 -9.34375 Z M 7.453125 -9.34375 "/></g></g></g><g fill="#1791c8" fill-opacity="1"><g transform="translate(230.681295, 249.534544)"><g><path d="M 7.390625 -21.734375 C 7.484375 -18.316406 7.53125 -14.863281 7.53125 -11.375 C 7.539062 -7.894531 7.515625 -4.347656 7.453125 -0.734375 C 5.503906 -0.421875 3.3125 -0.210938 0.875 -0.109375 C 0.65625 -5.109375 0.597656 -12.113281 0.703125 -21.125 C 1.898438 -21.351562 3.050781 -21.515625 4.15625 -21.609375 C 5.257812 -21.710938 6.335938 -21.753906 7.390625 -21.734375 Z M 3.03125 -23.3125 C 1.726562 -23.507812 1.085938 -24.300781 1.109375 -25.6875 C 1.242188 -26.925781 1.910156 -27.84375 3.109375 -28.4375 C 4.296875 -29.019531 5.363281 -29.128906 6.3125 -28.765625 C 7.519531 -28.128906 8.003906 -27.191406 7.765625 -25.953125 C 7.503906 -25.003906 6.992188 -24.289062 6.234375 -23.8125 C 5.335938 -23.269531 4.269531 -23.101562 3.03125 -23.3125 Z M 3.03125 -23.3125 "/></g></g></g><g fill="#1791c8" fill-opacity="1"><g transform="translate(238.889085, 249.534544)"><g><path d="M 18.8125 -11.546875 C 18.445312 -6.234375 16.332031 -2.679688 12.46875 -0.890625 C 10.695312 -0.160156 8.859375 0.0664062 6.953125 -0.203125 C 3.785156 -0.992188 1.765625 -3.910156 0.890625 -8.953125 C 0.503906 -12.804688 0.609375 -16.8125 1.203125 -20.96875 C 2.191406 -21.144531 3.175781 -21.289062 4.15625 -21.40625 C 5.132812 -21.519531 6.132812 -21.601562 7.15625 -21.65625 C 7.03125 -15.300781 7.25 -11.222656 7.8125 -9.421875 C 8.289062 -8.085938 8.96875 -7.484375 9.84375 -7.609375 C 10.863281 -7.765625 11.609375 -8.507812 12.078125 -9.84375 C 12.585938 -11.769531 12.769531 -15.847656 12.625 -22.078125 C 13.71875 -22.234375 14.765625 -22.347656 15.765625 -22.421875 C 16.773438 -22.503906 17.765625 -22.539062 18.734375 -22.53125 C 19.046875 -18.382812 19.070312 -14.722656 18.8125 -11.546875 Z M 18.8125 -11.546875 "/></g></g></g><g fill="#1791c8" fill-opacity="1"><g transform="translate(258.540426, 249.534544)"><g><path d="M 7.390625 -8.046875 C 7.378906 -6.929688 7.375 -5.75 7.375 -4.5 C 7.375 -3.25 7.363281 -1.914062 7.34375 -0.5 C 6.289062 -0.34375 5.226562 -0.210938 4.15625 -0.109375 C 3.082031 -0.00390625 1.992188 0.0664062 0.890625 0.109375 C 0.753906 -3.753906 0.675781 -7.378906 0.65625 -10.765625 C 0.632812 -14.148438 0.660156 -17.359375 0.734375 -20.390625 C 2.117188 -20.847656 3.425781 -21.222656 4.65625 -21.515625 C 5.882812 -21.816406 7.035156 -22.039062 8.109375 -22.1875 C 8.347656 -21.707031 8.640625 -21.054688 8.984375 -20.234375 C 9.328125 -19.410156 9.726562 -18.398438 10.1875 -17.203125 C 10.644531 -16.035156 11.039062 -15.070312 11.375 -14.3125 C 11.71875 -13.5625 11.988281 -13.007812 12.1875 -12.65625 C 12.914062 -13.726562 14.210938 -16.691406 16.078125 -21.546875 C 18.160156 -21.703125 20.5625 -21.609375 23.28125 -21.265625 C 23.375 -18.328125 23.425781 -15.148438 23.4375 -11.734375 C 23.445312 -8.316406 23.40625 -4.597656 23.3125 -0.578125 C 22.3125 -0.441406 21.273438 -0.316406 20.203125 -0.203125 C 19.140625 -0.0976562 18.023438 -0.0195312 16.859375 0.03125 C 16.796875 -0.25 16.753906 -2.71875 16.734375 -7.375 C 13.835938 -1.8125 12.285156 0.988281 12.078125 1.03125 Z M 7.390625 -8.046875 "/></g></g></g></svg>